/* XPM */
static char *_f0e87916fa04064b01ca4c1ab2e4724egKPnpqPYtqU8eEo[] = {
/* columns rows colors chars-per-pixel */
"16 16 2 1 ",
"  c None",
". c #18630E",
/* pixels */
"                ",
"......    ......",
" .    .  .    . ",
" .    .  .    . ",
"  .    .     .  ",
"  ..   ..   ..  ",
"   .    .   .   ",
"    .    . .    ",
"    .    ...    ",
"     .    .     ",
"     ..         ",
"      .  .      ",
"      ....      ",
"       ..       ",
"                ",
"                "
};
