/* XPM */
static char *_924c89a73c14b8af43a9435d95906990NoTwe6wx9PtITV4[] = {
/* columns rows colors chars-per-pixel */
"64 64 2 1 ",
"  c None",
". c #18630E",
/* pixels */
"                                                                ",
"                                                                ",
"                                                                ",
"                                                                ",
" .    ..................                ....................  . ",
" ........................              ........................ ",
" ........................              ........................ ",
"  ........................            ........................  ",
"   ...                 ...           ....                 ...   ",
"   ...                 ....          ....                ....   ",
"    ...                 ....        ....                 ...    ",
"    ....                ....        ....                ....    ",
"     ...                 ....      ....                 ...     ",
"     ....                 ...      ...                 ...      ",
"      ...                 ....    ....                ....      ",
"       ...                 ...    ...                 ...       ",
"       ....                ....    ..                ....       ",
"        ...                 ....                     ...        ",
"        ....                ....                    ....        ",
"         ...                 ....                  ....         ",
"         ....                 ...                  ...          ",
"          ....                ....                ....          ",
"           ...                 ...                ...           ",
"           ....                ....              ....           ",
"            ...                 ....             ...            ",
"            ....                ....            ....            ",
"             ...                 ....          ....             ",
"             ....                 ...          ...              ",
"              ....                ....        ....              ",
"               ...                 ....       ...               ",
"               ....                ....      ....               ",
"                ...                 ....     ...                ",
"                ....                ....    ....                ",
"                 ....                ....  ....                 ",
"                 ....                 ...  ...                  ",
"                  ....                ........                  ",
"                   ...                 ......                   ",
"                   ....                ......                   ",
"                    ...                 ....                    ",
"                    ....                 ...                    ",
"                     ....                ..                     ",
"                     ....                 .                     ",
"                      ....                                      ",
"                       ...           ..                         ",
"                       ....          ...                        ",
"                        ...         ....                        ",
"                        ....        ....                        ",
"                         ....      ....                         ",
"                         ....      ...                          ",
"                          ....    ....                          ",
"                           ...    ...                           ",
"                           ....  ....                           ",
"                            ........                            ",
"                            ........                            ",
"                             ......                             ",
"                             .....                              ",
"                              ....                              ",
"                               ..                               ",
"                               ..                               ",
"                                                                ",
"                                                                ",
"                                                                ",
"                                                                ",
"                                                                "
};
