/* XPM */
static char *_d483fce0ccf41b5e562f20411925685iAsUWpy2bgPuLvCe[] = {
/* columns rows colors chars-per-pixel */
"128 128 2 1 ",
"  c None",
". c #18630E",
/* pixels */
"                                                                                                                                ",
"                                                                                                                                ",
"                                                                                                                                ",
"                                                                                                                                ",
"                                                                                                                                ",
"                                                                                                                                ",
"                                                                                                                                ",
"                                                                                                                                ",
"                                                                                                                                ",
"            ....................................                                ........................................     .  ",
" ................................................                              ................................................ ",
"  ................................................                            ................................................  ",
"   ...............................................                            ...............................................   ",
"   ................................................                          ................................................   ",
"    ...............................................                         ................................................    ",
"    ......... ......................................                        ................................................    ",
"     .......                                 .......                       ........                                 .......     ",
"     .......                                  .......                      .......                                  ......      ",
"      .......                                 ........                    ........                                 .......      ",
"       ......                                  .......                   ........                                 .......       ",
"       .......                                 ........                  .......                                  .......       ",
"        ......                                  .......                 ........                                 .......        ",
"        .......                                  .......                .......                                  .......        ",
"         .......                                 .......               ........                                 .......         ",
"         .......                                  .......              .......                                 .......          ",
"          .......                                 ........            ........                                 .......          ",
"           ......                                  .......           ........                                 .......           ",
"           .......                                 ........          ........                                 .......           ",
"            .......                                 .......         ........                                 .......            ",
"            .......                                  .......        .......                                 ........            ",
"             .......                                 ........        ......                                 .......             ",
"             .......                                  .......        .....                                 .......              ",
"              .......                                 ........        ....                                 .......              ",
"               ......                                  .......        ...                                 .......               ",
"               .......                                 ........        .                                  .......               ",
"                .......                                 .......                                          .......                ",
"                .......                                  .......                                        ........                ",
"                 .......                                 ........                                       .......                 ",
"                 .......                                  .......                                      .......                  ",
"                  .......                                 ........                                     .......                  ",
"                   .......                                 .......                                    .......                   ",
"                   .......                                 ........                                   .......                   ",
"                    .......                                 .......                                  .......                    ",
"                    .......                                  .......                                ........                    ",
"                     .......                                 ........                               .......                     ",
"                     .......                                  .......                              .......                      ",
"                      .......                                 ........                             .......                      ",
"                      ........                                 .......                            .......                       ",
"                       .......                                 ........                          ........                       ",
"                        .......                                 ........                         .......                        ",
"                        .......                                  .......                        ........                        ",
"                         .......                                 ........                       .......                         ",
"                         ........                                 .......                      .......                          ",
"                          .......                                 ........                     .......                          ",
"                          ........                                 .......                    .......                           ",
"                           .......                                 ........                  ........                           ",
"                            .......                                 ........                 .......                            ",
"                            .......                                  .......                ........                            ",
"                             .......                                 ........               .......                             ",
"                             ........                                 .......              .......                              ",
"                              .......                                 ........             .......                              ",
"                              ........                                 ........           .......                               ",
"                               .......                                 ........          ........                               ",
"                                .......                                 ........         .......                                ",
"                                ........                                 .......        ........                                ",
"                                 .......                                 ........       .......                                 ",
"                                 ........                                 .......      .......                                  ",
"                                  .......                                 ........    ........                                  ",
"                                   .......                                 ........   .......                                   ",
"                                   .......                                  .......  ........                                   ",
"                                    .......                                 ................                                    ",
"                                    ........                                 ...............                                    ",
"                                     .......                                 ..............                                     ",
"                                     ........                                 ............                                      ",
"                                      .......                                 ............                                      ",
"                                       .......                                 ..........                                       ",
"                                       ........                                 .........                                       ",
"                                        .......                                 ........                                        ",
"                                        ........                                 .......                                        ",
"                                         .......                                 ......                                         ",
"                                         ........                                 ....                                          ",
"                                          .......                                  ...                                          ",
"                                           .......                                 ..                                           ",
"                                           ........                                 .                                           ",
"                                            .......                                                                             ",
"                                            ........                                                                            ",
"                                             .......                       ...                                                  ",
"                                             ........                      ...                                                  ",
"                                              .......                     .....                                                 ",
"                                               .......                    .....                                                 ",
"                                               ........                  .......                                                ",
"                                                .......                  .......                                                ",
"                                                ........                .......                                                 ",
"                                                 .......               ........                                                 ",
"                                                 ........              .......                                                  ",
"                                                  ........            ........                                                  ",
"                                                   .......            .......                                                   ",
"                                                   ........          ........                                                   ",
"                                                    .......         ........                                                    ",
"                                                    ........        .......                                                     ",
"                                                     .......       ........                                                     ",
"                                                      .......      .......                                                      ",
"                                                      ........    ........                                                      ",
"                                                       .......    .......                                                       ",
"                                                       ........  ........                                                       ",
"                                                        ................                                                        ",
"                                                        ...............                                                         ",
"                                                         ..............                                                         ",
"                                                          ............                                                          ",
"                                                          ............                                                          ",
"                                                           ..........                                                           ",
"                                                           ..........                                                           ",
"                                                            ........                                                            ",
"                                                            .......                                                             ",
"                                                             ......                                                             ",
"                                                              ....                                                              ",
"                                                              ....                                                              ",
"                                                               ..                                                               ",
"                                                               .                                                                ",
"                                                                                                                                ",
"                                                                                                                                ",
"                                                                                                                                ",
"                                                                                                                                ",
"                                                                                                                                ",
"                                                                                                                                ",
"                                                                                                                                ",
"                                                                                                                                ",
"                                                                                                                                "
};
