/* XPM */
static char *_9b5085d774e4278ccf86748013fc686RT3L79XhRobJahWQ[] = {
/* columns rows colors chars-per-pixel */
"32 32 2 1 ",
"  c None",
". c #18630E",
/* pixels */
"                                ",
"                                ",
"............        ............",
" ............      ............ ",
" ..        ..      ..        .. ",
"  ..        ..    ..        ..  ",
"   .         ..  ..         .   ",
"   ..        ..  ..        ..   ",
"    .         ..          ..    ",
"    ..        ..          ..    ",
"     ..        ..        ..     ",
"     ..        ..        ..     ",
"      ..        ..      ..      ",
"       .         ..     .       ",
"       ..        ..    ..       ",
"        ..        ..  ..        ",
"        ..        ..  ..        ",
"         ..        ....         ",
"         ..         ...         ",
"          ..        ..          ",
"           .                    ",
"           ..                   ",
"            ..    ..            ",
"            ..    ..            ",
"             ..  ..             ",
"             ..  ..             ",
"              ....              ",
"               ..               ",
"               ..               ",
"                                ",
"                                ",
"                                "
};
